<?xml version="1.0" standalone="no"?>
<!DOCTYPE svg PUBLIC "-//W3C//DTD SVG 20010904//EN"
 "http://www.w3.org/TR/2001/REC-SVG-20010904/DTD/svg10.dtd">
<svg version="1.0" xmlns="http://www.w3.org/2000/svg"
 width="1024.000000pt" height="1024.000000pt" viewBox="0 0 1024.000000 1024.000000"
 preserveAspectRatio="xMidYMid meet">

<g transform="translate(0.000000,1024.000000) scale(0.100000,-0.100000)"
fill="#000000" stroke="none">
<path d="M4935 9823 c-951 -41 -1866 -356 -2598 -896 -279 -205 -620 -526
-828 -778 -595 -721 -962 -1626 -1050 -2589 -18 -195 -16 -648 5 -850 89 -889
392 -1658 932 -2370 736 -970 1906 -1648 3124 -1810 334 -45 767 -51 1099 -15
1384 149 2650 918 3416 2075 131 197 196 311 307 535 390 791 537 1669 433
2594 -93 826 -436 1669 -942 2318 -284 366 -689 740 -1068 991 -836 553 -1849
837 -2830 795z m-1251 -3737 c174 -63 280 -187 355 -414 46 -139 64 -264 64
-457 -1 -324 -66 -548 -204 -699 -71 -77 -135 -120 -231 -153 -97 -34 -259
-36 -358 -4 -189 60 -329 208 -399 421 -77 237 -80 600 -6 855 76 260 230 419
456 470 93 21 236 13 323 -19z m5456 -119 c0 -68 3 -192 7 -275 l6 -152 -76 0
-76 0 -6 48 c-11 84 -44 203 -67 245 -41 72 -62 81 -201 85 -97 3 -126 1 -142
-11 -19 -15 -20 -30 -25 -311 l-5 -296 52 0 c98 0 127 26 144 131 20 120 12
109 77 109 l57 0 -3 -346 -3 -346 -49 4 c-28 3 -53 8 -56 10 -3 3 -9 32 -14
64 -13 97 -30 146 -60 176 -25 24 -36 28 -87 28 l-58 0 1 -286 c2 -249 4 -288
18 -302 21 -22 150 -29 222 -13 70 16 132 71 167 148 29 64 57 164 57 201 0
22 2 23 76 20 l76 -3 -3 -205 c-2 -113 -3 -231 -4 -263 l0 -57 -555 0 -555 0
-1 55 c0 52 2 56 25 61 54 12 82 28 97 55 12 25 14 121 12 678 l-3 649 -23 25
c-13 13 -41 32 -63 42 -34 16 -39 22 -39 50 0 18 -3 47 -6 64 l-6 31 538 3
c297 1 542 3 547 5 4 1 7 -54 7 -121z m-7542 46 l-3 -67 -39 -8 c-56 -12 -68
-25 -64 -67 7 -63 203 -1011 208 -1011 3 0 46 163 95 363 l88 362 -31 140
c-29 129 -34 142 -67 173 -23 21 -45 32 -65 32 l-30 0 0 75 0 75 284 0 284 0
6 -22 c3 -13 6 -47 6 -75 0 -49 -2 -53 -23 -53 -34 0 -67 -28 -67 -56 0 -13
40 -228 90 -477 49 -248 93 -472 96 -497 l7 -44 13 36 c37 108 180 923 169
967 -9 38 -33 60 -77 71 l-38 11 0 69 0 70 215 0 215 0 0 -49 c0 -62 -7 -81
-31 -81 -31 0 -70 -23 -84 -50 -7 -14 -20 -53 -29 -86 -21 -81 -204 -984 -253
-1244 l-38 -205 -142 -3 -142 -3 -15 53 c-26 91 -168 750 -182 843 -5 39 -9
46 -15 30 -14 -34 -149 -632 -174 -773 -14 -73 -26 -136 -29 -140 -2 -4 -64
-6 -138 -4 l-134 3 -62 272 c-240 1054 -281 1233 -288 1251 -8 20 -55 46 -84
46 -18 0 -20 6 -20 70 l0 70 295 0 296 0 -3 -67z m3367 45 c205 -62 304 -187
325 -409 14 -146 -7 -234 -78 -327 -25 -33 -154 -125 -192 -137 -23 -7 -27
-25 -5 -25 27 0 102 -79 124 -131 12 -27 40 -127 61 -221 44 -190 77 -274 112
-287 21 -7 62 -2 99 13 12 6 18 0 23 -25 12 -63 7 -98 -16 -113 -45 -28 -131
-46 -222 -46 -113 0 -179 26 -225 90 -38 53 -52 97 -96 302 -66 310 -89 357
-183 366 l-52 5 1 -244 c0 -134 4 -266 8 -292 10 -60 36 -87 90 -94 l41 -6 0
-58 0 -59 -320 0 -320 0 0 58 0 57 48 15 c86 27 82 -9 82 725 0 734 4 698 -82
725 l-48 15 0 63 0 63 388 -4 c308 -3 397 -7 437 -19z m1370 -1 c220 -62 363
-194 436 -404 38 -110 50 -188 56 -363 9 -265 -19 -424 -103 -598 -75 -156
-187 -248 -359 -298 -51 -14 -122 -18 -458 -23 l-397 -6 0 57 c0 55 1 58 28
64 46 11 101 43 114 67 17 28 24 1166 9 1267 -12 77 -46 116 -111 126 l-40 7
0 64 0 65 383 -4 c318 -4 392 -7 442 -21z m1187 -36 l-4 -59 -50 -19 c-30 -10
-60 -30 -72 -46 -21 -28 -21 -33 -20 -684 2 -591 3 -657 18 -671 19 -19 138
-29 214 -17 71 11 111 58 144 171 22 73 68 270 68 289 0 3 32 5 72 5 l71 0 -6
-107 c-4 -58 -7 -198 -7 -310 l0 -203 -550 0 -550 0 0 54 c0 54 0 55 38 66 62
21 98 54 111 104 15 59 15 1205 1 1258 -13 46 -58 84 -110 93 l-40 7 0 64 0
64 338 0 337 0 -3 -59z"/>
<path d="M3399 5918 c-44 -30 -85 -112 -104 -211 -24 -128 -38 -404 -32 -637
10 -319 40 -467 109 -525 82 -69 198 -44 248 56 53 102 76 355 67 734 -8 341
-25 451 -84 537 -46 68 -139 89 -204 46z"/>
<path d="M4640 5594 l0 -326 65 4 c139 9 192 106 189 349 -2 131 -21 213 -56
246 -35 33 -91 53 -148 53 l-50 0 0 -326z"/>
<path d="M6030 5236 l0 -686 28 -11 c39 -16 134 -5 188 21 80 39 129 141 155
330 21 150 19 621 -4 732 -42 207 -117 282 -293 295 l-74 6 0 -687z"/>
</g>
</svg>
